<?xml version="1.0" encoding="utf-8"?>
<!-- Generator: Adobe Illustrator 24.0.1, SVG Export Plug-In . SVG Version: 6.00 Build 0)  -->
<svg version="1.1" xmlns="http://www.w3.org/2000/svg" xmlns:xlink="http://www.w3.org/1999/xlink" x="0px" y="0px"
	 viewBox="0 0 413.7 71.2" style="enable-background:new 0 0 413.7 71.2;" xml:space="preserve">
<style type="text/css">
	.st0{fill:#292A33;}
	.st1{fill:#4EFFA6;}
	.st2{fill:#5E2BFF;}
	.st3{fill:#F3EFF5;}
</style>
<g id="Layer_2">
</g>
<g id="Layer_3">
	<g>
		<g>
			<path class="st3" d="M0.4,60.7c-0.2,0-0.4-0.1-0.4-0.4l0.1-49.5c0-0.2,0.1-0.3,0.3-0.3h13.8c4.4,0,7.9,1.3,10.5,4
				c2.6,2.7,3.9,6.3,3.9,10.9c0,3.4-0.7,6.4-2,8.9c-1.3,2.5-3.1,4.4-5.3,5.8c-2.2,1.3-4.5,2-7.1,2H8.8v18.1c0,0.2-0.1,0.4-0.4,0.4
				H0.4z M8.8,33.5h5.5c1.5,0,2.9-0.7,4-2.2c1.1-1.5,1.7-3.4,1.7-5.7c0-1.9-0.5-3.4-1.5-4.6c-1-1.2-2.4-1.8-4.2-1.8l-5.5,0.1V33.5z"
				/>
			<path class="st3" d="M45.5,61.4c-2.6,0-5-0.7-7.1-2c-2.1-1.3-3.9-3.1-5.1-5.3C32,52,31.3,49.6,31.3,47l0.1-22.8
				c0-2.6,0.6-5,1.9-7.2c1.3-2.2,3-3.9,5.1-5.2s4.5-1.9,7.1-1.9c2.6,0,4.9,0.6,7.1,1.9c2.1,1.3,3.8,3,5.1,5.2
				c1.3,2.2,1.9,4.6,1.9,7.2L59.6,47c0,2.6-0.6,5.1-1.9,7.2c-1.3,2.2-3,3.9-5.1,5.3C50.5,60.8,48.1,61.4,45.5,61.4z M45.5,52.7
				c1.4,0,2.7-0.6,3.8-1.8c1.1-1.2,1.6-2.5,1.6-4l-0.1-22.8c0-1.6-0.5-2.9-1.5-4c-1-1.1-2.3-1.7-3.8-1.7c-1.5,0-2.8,0.5-3.8,1.6
				c-1.1,1.1-1.6,2.4-1.6,4.1V47c0,1.6,0.5,2.9,1.6,4.1C42.7,52.1,44,52.7,45.5,52.7z"/>
			<path class="st3" d="M70.8,60.7c-0.2,0-0.3-0.1-0.4-0.4L62,10.9c0-0.2,0-0.3,0.2-0.3h8.1c0.2,0,0.3,0.1,0.4,0.3l4.6,32.5L80,10.9
				c0-0.2,0.2-0.3,0.4-0.3h6.5c0.2,0,0.3,0.1,0.4,0.3l4.7,32.5l4.7-32.5c0-0.2,0.2-0.3,0.4-0.3h8c0.2,0,0.3,0.1,0.3,0.3l-8.6,49.5
				c0,0.1-0.2,0.2-0.4,0.4h-8.7c-0.1,0-0.3-0.1-0.4-0.4l-3.7-25.8l-3.7,25.8c0,0.2-0.2,0.4-0.4,0.4H70.8z"/>
			<path class="st3" d="M109.8,60.7c-0.2,0-0.3-0.1-0.3-0.4l0.1-49.5c0-0.2,0.1-0.3,0.3-0.3H133c0.2,0,0.3,0.1,0.3,0.4V19
				c0,0.2-0.1,0.3-0.3,0.3h-14.8v11.2H133c0.2,0,0.3,0.1,0.3,0.3l0.1,8.1c0,0.2-0.1,0.3-0.3,0.3h-14.8v12.6h14.8
				c0.2,0,0.3,0.1,0.3,0.4v8.2c0,0.2-0.1,0.3-0.3,0.3H109.8z"/>
			<path class="st3" d="M140,60.7c-0.2,0-0.3-0.1-0.3-0.4l0.1-49.5c0-0.2,0.1-0.3,0.3-0.3h14.5c2.6,0,5,0.6,7.2,1.9
				c2.2,1.3,3.9,3,5.2,5.1c1.3,2.1,1.9,4.5,1.9,7.2c0,1.8-0.3,3.4-0.8,4.8c-0.5,1.4-1.2,2.6-1.9,3.6c-0.7,1-1.4,1.7-1.9,2.2
				c2.6,2.9,3.9,6.3,3.9,10.2l0.1,14.8c0,0.2-0.1,0.4-0.4,0.4h-8.1c-0.2,0-0.3-0.1-0.3-0.2V45.6c0-1.7-0.6-3.2-1.8-4.5
				c-1.2-1.3-2.7-1.9-4.5-1.9h-4.8l-0.1,21.2c0,0.2-0.1,0.4-0.3,0.4H140z M148.5,30.5h6.2c1.5,0,2.8-0.6,4-1.7
				c1.2-1.1,1.7-2.4,1.7-4c0-1.5-0.6-2.9-1.7-4c-1.1-1.1-2.5-1.7-4-1.7h-6.2V30.5z"/>
			<path class="st3" d="M174.8,60.7c-0.2,0-0.4-0.1-0.4-0.4l0.1-49.5c0-0.2,0.1-0.3,0.3-0.3h23c0.2,0,0.4,0.1,0.4,0.3V19
				c0,0.2-0.1,0.3-0.3,0.3h-14.8v11.2H198c0.2,0,0.3,0.1,0.3,0.4l0.1,8.1c0,0.2-0.1,0.3-0.4,0.3h-14.8v21.1c0,0.2-0.1,0.4-0.4,0.4
				H174.8z"/>
			<path class="st3" d="M218,61.4c-2.5,0-4.9-0.7-7.1-2c-2.2-1.3-3.9-3.1-5.1-5.3c-1.3-2.2-1.9-4.6-1.9-7.3l0.1-36
				c0-0.2,0.1-0.3,0.3-0.3h8.1c0.2,0,0.3,0.1,0.3,0.3v36c0,1.6,0.5,3,1.5,4.1c1,1.1,2.3,1.7,3.8,1.7c1.5,0,2.8-0.6,3.9-1.7
				c1-1.1,1.5-2.5,1.5-4.1v-36c0-0.2,0.1-0.3,0.3-0.3h8.1c0.2,0,0.3,0.1,0.3,0.3l0.1,36c0,2.7-0.6,5.1-1.9,7.3c-1.3,2.2-3,4-5.1,5.3
				C223,60.8,220.7,61.4,218,61.4z"/>
			<path class="st3" d="M238.2,60.7c-0.2,0-0.3-0.1-0.3-0.4L238,11c0-0.2,0.1-0.4,0.4-0.4h8c0.2,0,0.4,0.1,0.4,0.4l-0.1,40.9h14.8
				c0.2,0,0.4,0.1,0.4,0.4v8.1c0,0.2-0.1,0.4-0.4,0.4H238.2z"/>
		</g>
		<g>
			<g>
				<path class="st1" d="M279.7,71.2c0.9-10,1.8-20,2.6-30.1c-3.5,0-6.9,0-10.5,0c2.9-13.8,5.7-27.4,8.6-41.1c7.2,0,14.4,0,21.7,0
					c-2.4,7.6-4.7,15.2-7.1,22.9c5.2,0,10.4,0,15.8,0c-10.4,16.2-20.7,32.3-31,48.4C279.8,71.2,279.7,71.2,279.7,71.2z"/>
			</g>
		</g>
		<g>
			<path class="st3" d="M320.8,55.9c1.1,0,2-0.2,2.8-0.4c0.7-0.2,1.3-0.8,1.7-1.7c0.4-0.9,0.6-2.3,0.6-4.2V21.8c0-1.3,0-2.6,0.1-3.8
				c0.1-1.2,0.1-2.1,0.2-2.8c-0.8,0-1.7,0.1-2.9,0.1c-1.2,0-2,0.1-2.5,0.1V9.9l21.1-0.1c4.8,0,8.9,0.7,12.4,2.1
				c3.5,1.4,6.4,3.3,8.6,5.8c2.2,2.4,3.9,5.1,5,8.1c1.1,3,1.7,6,1.7,9c0,2.9-0.5,5.9-1.6,9c-1,3-2.7,5.8-4.9,8.4
				c-2.2,2.5-5.1,4.6-8.7,6.2c-3.6,1.6-7.9,2.4-13,2.4h-20.7V55.9z M336.5,48.8c0,1.3,0,2.6-0.1,3.8c0,1.2-0.1,2.1-0.2,2.8
				c0.5,0,1.1-0.1,2,0c0.8,0,1.7,0,2.6,0.1c0.9,0,1.7,0,2.2,0c2.7,0,4.9-0.5,6.9-1.6c1.9-1.1,3.5-2.5,4.7-4.3
				c1.2-1.8,2.1-3.9,2.7-6.1c0.6-2.3,0.9-4.6,0.9-7c0-4.9-0.7-9-2-12.1c-1.4-3.1-3.3-5.5-5.7-7c-2.4-1.5-5.4-2.4-8.7-2.5
				c-1.2,0-2.1,0.1-2.9,0.3c-0.8,0.3-1.4,0.8-1.8,1.7c-0.4,0.9-0.6,2.2-0.6,4.1V48.8z"/>
			<path class="st3" d="M371.4,60.7v-4.8c1.1,0,2-0.2,2.8-0.4c0.7-0.2,1.3-0.8,1.7-1.7c0.4-0.9,0.6-2.3,0.6-4.2V21.8
				c0-1.3,0-2.6,0.1-3.8c0.1-1.2,0.1-2.1,0.2-2.8c-0.8,0-1.7,0.1-2.9,0.1c-1.2,0-2,0.1-2.5,0.1V9.9c3.3,0,6.7-0.1,10-0.1
				c3.4,0,6.7,0,10-0.1c5.8,0,10.4,1,13.8,3.2c3.4,2.2,5,5.5,4.7,10c-0.1,1.4-0.5,2.8-1.3,4.1c-0.8,1.3-1.9,2.5-3.4,3.6
				c-1.5,1.1-3.4,1.9-5.7,2.5v0.1c4.8,0.8,8.4,2.4,10.7,4.8c2.3,2.4,3.4,5.2,3.4,8.2c0,3.1-0.8,5.8-2.3,7.9
				c-1.5,2.2-3.6,3.8-6.3,4.9c-2.7,1.1-5.7,1.6-9.1,1.6H371.4z M386.8,55.6c0.9,0,1.7,0,2.5,0c0.8,0,1.5,0,2.3,0c0.8,0,1.5,0,2.2,0
				c2.9-0.1,5.1-1.1,6.5-2.8c1.4-1.7,2-3.9,2-6.6c0-2.2-0.5-4-1.4-5.3c-0.9-1.3-2.1-2.2-3.5-2.7c-1.4-0.5-2.9-0.8-4.5-0.8
				c-1.2,0-2.2,0-3.1,0c-0.9,0-1.8,0-2.8,0.1v11.8c0,1.3,0,2.5-0.1,3.7C386.9,54,386.8,54.9,386.8,55.6z M387,32.2l3.8-0.1
				c2,0,3.6-0.5,4.8-1.4c1.2-0.9,2-2,2.5-3.5c0.5-1.5,0.8-3.1,0.8-4.8c0-1.9-0.4-3.4-1.2-4.5c-0.8-1.1-1.7-1.9-2.9-2.4
				c-1.2-0.5-2.4-0.7-3.6-0.7c-0.8,0-1.5,0.1-2.1,0.4c-0.6,0.2-1.1,0.8-1.5,1.6c-0.4,0.8-0.6,2.2-0.6,4.1V32.2z"/>
		</g>
	</g>
</g>
</svg>
