<?xml version="1.0" encoding="utf-8"?>
<!-- Generator: Adobe Illustrator 24.0.1, SVG Export Plug-In . SVG Version: 6.00 Build 0)  -->
<svg version="1.1" id="Layer_3" xmlns="http://www.w3.org/2000/svg" xmlns:xlink="http://www.w3.org/1999/xlink" x="0px" y="0px"
	 viewBox="0 0 100 100" style="enable-background:new 0 0 100 100;" xml:space="preserve">
<style type="text/css">
	.st0{fill:#292A33;}
	.st1{fill:#4EFFA6;}
</style>
<path class="st0" d="M88,100H12c-6.6,0-12-5.4-12-12V12C0,5.4,5.4,0,12,0H88c6.6,0,12,5.4,12,12V88C100,94.6,94.6,100,88,100z"/>
<g>
	<g>
		<path class="st1" d="M35.2,95.2c1.1-12.7,2.2-25.4,3.3-38.2c-4.4,0-8.8,0-13.3,0c3.7-17.5,7.3-34.9,10.9-52.3c9.2,0,18.3,0,27.6,0
			c-3,9.7-6,19.3-9,29c6.7,0,13.2,0,20.1,0c-13.2,20.6-26.3,41-39.4,61.4C35.4,95.2,35.3,95.2,35.2,95.2z"/>
	</g>
</g>
</svg>
